<svg id="Layer_1" data-name="Layer 1" xmlns="http://www.w3.org/2000/svg" viewBox="0 0 320.76 59.93"><path fill="#C49E85" d="M115,91.57a21.81,21.81,0,0,1-6.63-27.38,20.92,20.92,0,0,1,12.49-10.62c4.92-1.69,7.66-1.49,16.68,1,0-4.12,0-8.15,0-12.18,0-6.83,0-6.85,6.77-6.79,4.89,0,5.2.36,5.2,5.34v23c1.07-.5,1.37-1.36,1.85-2A23.79,23.79,0,0,1,182,54.86a15.67,15.67,0,0,1,1.65,1,1.82,1.82,0,0,1,.57,2.74c-.75,1.12-1.7,1.07-2.72.35a18.93,18.93,0,0,0-13-3.2C161.1,56.38,153.94,62,152,69a18.89,18.89,0,0,0,7.21,20.29,39.67,39.67,0,0,0,3.52,2.18c1.11.63,2,1.42,1.24,2.71s-1.84.93-2.82.49a22.55,22.55,0,0,1-9.7-8.28c-1-1.53-1.85-3.17-3-5.14-3.73,7.69-9.24,12.79-17.54,14A21.75,21.75,0,0,1,115,91.57m20.67-12.21c2.62-4.67,2.37-8.54-.76-11.84a10.21,10.21,0,0,0-11.22-2.28,9.32,9.32,0,0,0-5.49,9.45,9.58,9.58,0,0,0,6.66,8.45C128.7,84.4,132.59,83.12,135.66,79.36Z" transform="translate(-18.37 -35.61)"/><path fill="#C49E85" d="M261.28,62.27c.07-2.26.13-4.29.17-6.32,0-1.85.86-2.88,2.83-2.84,1.79,0,3.58,0,5.37,0,2.74,0,3.67.89,3.69,3.64,0,5.53,0,11.06,0,16.59,0,6,0,12,0,18,0,2.85-1,3.87-3.79,3.86-7.07,0-14.14,0-21.2-.35-7.59-.33-14.31-6.93-15.21-14.77s-.28-15.91-.33-23.87c0-2.12,1.1-3.27,3.4-3.14,1.61.09,3.24,0,4.87-.07,3-.1,4,.78,4,3.83,0,6.26,0,12.52,0,18.78a8,8,0,0,0,1,4.46A5.42,5.42,0,0,0,250.8,83c2.76,0,5.53,0,8.29,0,1.6,0,2.29-.45,2.25-2.27C261.2,74.69,261.27,68.59,261.28,62.27Z" transform="translate(-18.37 -35.61)"/><path fill="#C49E85" d="M322.69,95.26c-5.53-.1-10.82-.25-16.1-.25-2.26,0-3.36-1-3.41-3.15s0-4.4,0-6.59a4.52,4.52,0,0,1,1.66-3.39q7.23-6.73,14.39-13.54c.94-.89,1.8-1.86,3.09-3.21h-7l-8.54,0c-2.18,0-3.3-1.07-3.26-3.32,0-1.87,0-3.74,0-5.61s.91-3,2.93-3h29.53q3,0,3,3a1.92,1.92,0,0,0,0,.24c.78,5.86-.57,10.58-5.74,14.36-4.7,3.43-8.68,7.84-13,11.83a2.6,2.6,0,0,0-.32.56c1.63.52,3.21,0,4.77,0,3.58,0,7.16-.06,10.74,0,2.6,0,3.48.94,3.53,3.56,0,1.7,0,3.41,0,5.12-.06,2.62-.9,3.5-3.56,3.52C331.23,95.34,327.08,95.28,322.69,95.26Z" transform="translate(-18.37 -35.61)"/><path fill="#C49E85" d="M48.42,69.39c0,7.57,0,14.89,0,22.21C48.4,94.54,47.87,95,45,95c-1.79,0-3.58,0-5.37,0C36.71,95,36,94.27,36,91.11c0-8.54.05-17.08.07-25.62,0-4,0-8,0-12,0-3.43-.07-3.47-3.62-3.48s-7.16-.06-10.73,0c-2.28,0-3.31-1.06-3.35-3.23,0-1.87-.06-3.74,0-5.61s1-3.2,3.17-3.2l41,0c2,0,3,.95,3,3s0,4.23-.06,6.35a2.69,2.69,0,0,1-3.33,2.92c-3.83-.44-7.63,0-11.45,0-1.79,0-2.39.74-2.36,2.51C48.47,58.25,48.42,63.7,48.42,69.39Z" transform="translate(-18.37 -35.61)"/><path fill="#C49E85" d="M230.06,58.67c0,6.47,0,6.47-6.22,6.47-2.52,0-5,0-7.56,0-5.4.09-9,3.89-8.8,9.24a9.06,9.06,0,0,0,9.59,8.91c3.34-.27,6.66,0,10-.11,1.94-.07,3,1,3,3s0,4.22,0,6.34c0,1.42-.68,2.63-2.07,2.54-7-.42-14.19,1.28-20.9-2-8.59-4.14-12.94-12.83-11.52-22.9a20.12,20.12,0,0,1,17-16.83c5-.65,10.07-.22,15.1-.2A2.2,2.2,0,0,1,230,55.51C230.08,56.48,230.05,57.46,230.06,58.67Z" transform="translate(-18.37 -35.61)"/><path fill="#C49E85" d="M276.65,48c0-4.9.53-5.42,5.17-5.45,6.77,0,6.77,0,6.79,6.68,0,.73,0,1.47,0,2.2-.05,1.25.55,1.75,1.77,1.73,2.28,0,4.55,0,6.83,0,2.74,0,3.57,1,3.4,3.79-.1,1.62-.12,3.24-.14,4.87,0,2.57-.79,3.37-3.34,3.4-2,0-4.07.06-6.09-.06-1.76-.1-2.51.47-2.46,2.34.11,3.41,0,6.83.05,10.24,0,3.64,1.89,5.5,5.56,5.64,1,0,1.94-.21,2.91-.21,2.29,0,3.25,1,3.29,3.25,0,2-.05,3.91,0,5.86a2.62,2.62,0,0,1-2.78,3,36.59,36.59,0,0,1-9.46-.61c-6.64-1.63-11.45-7.95-11.5-15.2C276.58,69,276.64,58.61,276.65,48Z" transform="translate(-18.37 -35.61)"/><path fill="#C49E85" d="M157.28,79.48c-1.43-2-.92-3.56.6-4.86a3.61,3.61,0,0,1,5.1,0c2.64,2.29,5.19,4.68,7.78,7A8.25,8.25,0,0,0,174,83.88c1.13-1.94,2.31-3.92,3.45-5.93,2.78-4.86,5.53-9.75,8.32-14.61a21.26,21.26,0,0,1,2-3,3.48,3.48,0,0,1,4.82-.75,3.28,3.28,0,0,1,1.47,4.6c-1.21,2.57-2.57,5.06-4,7.55q-5.53,10-11.15,20c-2.07,3.69-4.54,4-7.61,1.08C166.75,88.38,162.06,84,157.28,79.48Z" transform="translate(-18.37 -35.61)"/><path fill="#C49E85" d="M83.48,83c1.58,1.53,2.14.4,2.79-.76Q91.91,72.09,97.62,62c.67-1.19,1.31-2.55,2.77-2.93a4,4,0,0,1,4.28,1,3.59,3.59,0,0,1,.36,4.5Q99.38,74.93,93.77,85.33,91.91,88.75,90,92.16c-1.49,2.62-4.27,3.31-6.55,1.3-4.86-4.31-9.6-8.76-14.28-13.27-1.94-1.87-1.92-3.41-.42-5.13s3.49-1.86,5.44-.25C77.34,77.38,80.31,80.16,83.48,83Z" transform="translate(-18.37 -35.61)"/><path fill="#C49E85" d="M66.38,57.71c8.66-6.8,19.51-7.59,27.82-2.08,1,.64,2.67,1.16,1.44,2.93-1,1.51-2.21,1.1-3.55.24-6.56-4.21-13.44-4.36-20.09-.6s-9.75,9.74-9.36,17.27C63,82.53,66.79,87.61,72.9,91c.56.32,1.18.56,1.71.92a1.58,1.58,0,0,1,.52,2A1.43,1.43,0,0,1,73.44,95a8.44,8.44,0,0,1-2.27-.81C57.1,86.68,54.7,68.91,66.38,57.71Z" transform="translate(-18.37 -35.61)"/></svg>